<?xml version="1.0" encoding="utf-8"?>
<!-- Generator: Adobe Illustrator 19.1.0, SVG Export Plug-In . SVG Version: 6.00 Build 0)  -->
<svg version="1.1" id="Layer_1" xmlns="http://www.w3.org/2000/svg" xmlns:xlink="http://www.w3.org/1999/xlink" x="0px" y="0px"
	 viewBox="0 0 147 32.5" style="enable-background:new 0 0 147 32.5;" xml:space="preserve">
<style type="text/css">
	.st0{fill:url(#SVGID_1_);}
	.st1{fill:url(#SVGID_2_);}
</style>
<g>
	
		<linearGradient id="SVGID_1_" gradientUnits="userSpaceOnUse" x1="91.3398" y1="70.34" x2="160.9274" y2="70.34" gradientTransform="matrix(1 0 0 1 -14.5 -54.09)">
		<stop  offset="0" style="stop-color:#F2DFD0;stop-opacity:0"/>
		<stop  offset="0.3395" style="stop-color:#F9F1EA;stop-opacity:0.3549"/>
		<stop  offset="0.6696" style="stop-color:#FFFFFF;stop-opacity:0.7"/>
	</linearGradient>
	<path class="st0" d="M143.4,4.2h-42.8H76.8v24h23.7h28.6c1.8,0,3.2-1.5,3-3.3c-0.1-1.6-1.5-2.8-3.1-2.8h-26.8
		c-0.9,0-1.7-0.8-1.7-1.7s0.8-1.7,1.7-1.7h15.3c1.8,0,3.2-1.5,3-3.3c-0.1-1.6-1.5-2.8-3.1-2.8h0.1c-0.7,0-1.2-0.5-1.2-1.2
		c0-0.7,0.5-1.2,1.2-1.2h25.7c1.6,0,3-1.2,3.1-2.8C146.5,5.7,145.1,4.2,143.4,4.2z"/>
	
		<linearGradient id="SVGID_2_" gradientUnits="userSpaceOnUse" x1="26.0754" y1="64.84" x2="109.9512" y2="64.84" gradientTransform="matrix(-1 0 0 -1 110.5238 81.09)">
		<stop  offset="0" style="stop-color:#F2DFD0;stop-opacity:0"/>
		<stop  offset="0.3395" style="stop-color:#F9F1EA;stop-opacity:0.3549"/>
		<stop  offset="0.6696" style="stop-color:#FFFFFF;stop-opacity:0.7"/>
	</linearGradient>
	<path class="st1" d="M3.6,28.2h57.1h23.7v-24H60.7H17.9c-1.8,0-3.2,1.5-3,3.3c0.1,1.6,1.5,2.8,3.1,2.8h41.1c0.9,0,1.7,0.8,1.7,1.7
		s-0.8,1.7-1.7,1.7H29.4c-1.8,0-3.2,1.5-3,3.3c0.1,1.6,1.5,2.8,3.1,2.8h14.2c0.7,0,1.2,0.5,1.2,1.2s-0.5,1.2-1.2,1.2h-40
		c-1.6,0-3,1.2-3.1,2.8C0.5,26.8,1.9,28.2,3.6,28.2z"/>
</g>
</svg>
