<?xml version="1.0" encoding="utf-8"?>
<!-- Generator: Adobe Illustrator 19.1.0, SVG Export Plug-In . SVG Version: 6.00 Build 0)  -->
<svg version="1.1" id="Layer_1" xmlns="http://www.w3.org/2000/svg" xmlns:xlink="http://www.w3.org/1999/xlink" x="0px" y="0px"
	 viewBox="0 0 185.9 280.5" style="enable-background:new 0 0 185.9 280.5;" xml:space="preserve">
<style type="text/css">
	.st0{fill:#1A333A;}
	.st1{fill:#D15028;}
	.st2{fill:#B5351C;}
</style>
<g>
	<g>
		<polygon class="st0" points="181.4,161.7 92.9,212.8 4.5,161.7 4.5,59.6 92.9,8.5 181.4,59.6 		"/>
		<g>
			<path class="st1" d="M79.1,43.5L65.3,74l23.8,52.5c3.5,7.6-2.1,16.6-10.5,16.3c-0.3,0-0.6,0-0.9-0.1c-5.6-0.6-10-4.9-10.7-10.5
				c-0.9-7.3,4.8-13.8,12-13.8l0,0L67.7,93.6c-16.7,5.1-29.1,20.1-28.3,38.7c0.8,19.8,16.4,36.3,36.2,37.9
				c17.8,1.5,33.4-8.8,39.9-23.9c3.2-7.5,3-16-0.4-23.4L79.1,43.5z"/>
			<polygon class="st2" points="113.1,43 99.3,73.5 125,130.4 152.6,130.4 			"/>
			<polyline class="st1" points="128.5,73.6 113.1,43 113.1,104 125,130.4 153.6,130.4 140.1,102.8 142,102.8 126.9,73.6 128,73.6 
							"/>
		</g>
	</g>
	<g>
		<g>
			<g>
				<g>
					<polygon class="st0" points="22,272.6 22,269.5 24.1,269.5 24.1,258.7 18.6,272.6 16.4,272.6 10.9,258.7 10.9,269.5 13,269.5 
						13,272.6 5.7,272.6 5.7,269.5 7.8,269.5 7.8,255.3 5.7,255.3 5.7,252.2 11.8,252.2 17.6,267 23.5,252.2 29.3,252.2 29.3,255.3 
						27.2,255.3 27.2,269.5 29.3,269.5 29.3,272.6 					"/>
				</g>
				<g>
					<path class="st0" d="M41.1,272.6c-2.8,0-5.1-0.9-6.8-2.8c-1.7-1.8-2.5-4.3-2.5-7.4c0-3.2,0.9-5.7,2.6-7.5
						c1.7-1.8,4-2.7,6.8-2.7c2,0,4.1,0.5,6.2,1.6l0.3,0.2v4.9h-3.2V256c-1-0.5-2.2-0.7-3.5-0.7c-1.9,0-3.4,0.6-4.4,1.8
						c-1,1.2-1.5,3-1.5,5.2c0,2.3,0.5,4.1,1.6,5.4c1.1,1.3,2.5,1.9,4.5,1.9c1.7,0,3.6-0.6,5.6-1.8l0.9-0.5v3.3l-0.3,0.2
						C45.4,271.9,43.2,272.6,41.1,272.6z"/>
				</g>
				<g>
					<path class="st0" d="M62.7,272.6v-3.1h1.9l-1.2-3.5h-6.4l-1.2,3.5h2v3.1h-7.2v-3.1h2l6.2-17.3h3.1l6.1,17.3h2v3.1H62.7z
						 M62.2,262.9l-2.1-6.1l-2.1,6.1H62.2z"/>
				</g>
				<g>
					<polygon class="st0" points="72.8,272.6 72.8,269.5 74.8,269.5 74.8,255.3 72.8,255.3 72.8,252.2 80,252.2 80,255.3 78,255.3 
						78,269.5 85,269.5 85,265.7 88.2,265.7 88.2,272.6 					"/>
				</g>
				<g>
					<polygon class="st0" points="90.4,272.6 90.4,269.5 92.4,269.5 92.4,255.3 90.4,255.3 90.4,252.2 97.6,252.2 97.6,255.3 
						95.6,255.3 95.6,269.5 97.6,269.5 97.6,272.6 					"/>
				</g>
				<g>
					<polygon class="st0" points="116.2,272.6 106.9,258.3 106.9,269.5 109,269.5 109,272.6 101.7,272.6 101.7,269.5 103.8,269.5 
						103.8,255.3 101.7,255.3 101.7,252.2 106.7,252.2 116,266.4 116,255.3 113.9,255.3 113.9,252.2 121.2,252.2 121.2,255.3 
						119.2,255.3 119.2,272.6 					"/>
				</g>
				<g>
					<path class="st0" d="M124.5,272.6v-3.1h2v-14.2h-2v-3.1h6.9c3.1,0,5.6,0.8,7.2,2.5c1.7,1.6,2.5,4.1,2.5,7.2
						c0,3.5-0.9,6.2-2.7,8c-1.8,1.8-4.3,2.7-7.3,2.7H124.5z M131.2,269.5c2.1,0,3.7-0.6,4.8-1.8c1.1-1.2,1.7-3.1,1.7-5.6
						c0-2.3-0.5-4-1.5-5.2c-1-1.1-2.7-1.7-4.9-1.7h-1.6v14.2H131.2z"/>
				</g>
				<g>
					<polygon class="st0" points="143.3,272.6 143.3,269.5 145.4,269.5 145.4,255.3 143.3,255.3 143.3,252.2 158.1,252.2 158.1,259 
						154.9,259 154.9,255.3 148.6,255.3 148.6,260.4 150.8,260.4 150.8,258.2 154,258.2 154,265.8 150.8,265.8 150.8,263.5 
						148.6,263.5 148.6,269.5 154.9,269.5 154.9,265.7 158.1,265.7 158.1,272.6 					"/>
				</g>
				<g>
					<polygon class="st0" points="175.2,272.6 165.9,258.3 165.9,269.5 168,269.5 168,272.6 160.7,272.6 160.7,269.5 162.7,269.5 
						162.7,255.3 160.7,255.3 160.7,252.2 165.7,252.2 175,266.4 175,255.3 172.9,255.3 172.9,252.2 180.2,252.2 180.2,255.3 
						178.1,255.3 178.1,272.6 					"/>
				</g>
				<g>
					<path class="st0" d="M41.2,272.6c-2.8,0-5.1-0.9-6.8-2.7c-1.7-1.8-2.6-4.3-2.6-7.5c0-3.1,0.9-5.5,2.5-7.4
						c1.7-1.8,4-2.8,6.8-2.8c2.1,0,4.3,0.6,6.3,1.9l0.3,0.2v3.3l-0.9-0.5c-2-1.2-3.9-1.8-5.6-1.8c-1.9,0-3.4,0.6-4.5,1.9
						c-1.1,1.3-1.6,3.1-1.6,5.4c0,2.2,0.5,4,1.5,5.2c1,1.2,2.4,1.8,4.4,1.8c1.3,0,2.5-0.2,3.5-0.7v-2.9h3.2v4.9l-0.3,0.2
						C45.3,272,43.3,272.6,41.2,272.6z"/>
				</g>
			</g>
		</g>
		<g>
			<g>
				<g>
					<path class="st0" d="M17.3,239.7v-3H19l-1.1-3.3h-6l-1.1,3.3h1.9v3H5.7v-3h1.9l5.9-16.4h3l5.8,16.4h1.9v3H17.3z M16.8,230.4
						l-2-5.7l-2,5.7H16.8z"/>
				</g>
				<g>
					<path class="st0" d="M34.8,239.7l-0.1-1.4c-1.1,0.9-2.3,1.4-3.7,1.4c-1.4,0-2.6-0.4-3.4-1.2c-0.8-0.8-1.2-1.9-1.2-3.3
						c0-3.4,2.5-5.1,7.4-5.1h0.8v-0.9c0-0.7-0.2-1.1-0.5-1.5c-0.3-0.3-0.9-0.5-1.7-0.5c-1.3,0-2.8,0.4-4.4,1.1l-0.8,0.4v-3.1
						l0.3-0.2c1.7-0.8,3.4-1.2,5.2-1.2c1.6,0,2.8,0.4,3.7,1.2c0.9,0.8,1.3,2.1,1.3,3.8v7.3h1.9v3H34.8z M33.5,233.1
						c-3.9,0-3.9,1.5-3.9,2c0,0.6,0.1,1,0.4,1.2c0.3,0.3,0.7,0.4,1.3,0.4c1.2,0,2.2-0.6,3.2-1.7v-1.9H33.5z"/>
				</g>
				<g>
					<path class="st0" d="M42.6,239.7v-3h1.9v-9.4h-1.9v-3h4.8l0.1,1.2c0.8-0.8,1.8-1.2,3-1.2c0.4,0,0.7,0,1.1,0.1l0.5,0.1v3.4
						l-0.7-0.1c-0.4-0.1-0.8-0.1-1.2-0.1c-1.2,0-2,0.6-2.6,1.7v7.3h1.9v3H42.6z"/>
				</g>
				<g>
					<path class="st0" d="M60.9,239.7c-2,0-3.6-0.7-4.8-2.1c-1.2-1.4-1.8-3.2-1.8-5.5c0-2.3,0.6-4.2,1.9-5.6
						c1.3-1.4,2.9-2.1,4.9-2.1c2,0,3.6,0.7,4.7,2c1.2,1.3,1.8,3.1,1.8,5.4c0,2.4-0.6,4.3-1.9,5.7C64.5,239,62.9,239.7,60.9,239.7z
						 M60.9,227.3c-1.1,0-1.9,0.3-2.5,1c-0.6,0.7-0.9,1.8-0.9,3.4c0,1.7,0.3,2.9,0.9,3.8c0.6,0.8,1.5,1.2,2.6,1.2
						c1.1,0,1.9-0.4,2.5-1.1c0.6-0.8,0.9-2,0.9-3.6c0-1.6-0.3-2.8-0.9-3.6C62.9,227.7,62.1,227.3,60.9,227.3z"/>
				</g>
				<g>
					<path class="st0" d="M78.5,239.7v-3h1.9v-7.2c0-0.8-0.2-1.4-0.5-1.7c-0.3-0.3-0.8-0.4-1.3-0.4c-1.2,0-2.3,0.6-3.2,1.8v7.6h1.9
						v3h-6.9v-3h1.9v-9.4h-1.9v-3h4.9l0.1,1.3c1.1-0.9,2.4-1.3,3.8-1.3c1.5,0,2.6,0.5,3.3,1.4c0.7,0.9,1,2.1,1,3.5v7.5h1.9v3H78.5z"
						/>
				</g>
				<g>
					<path class="st0" d="M94.9,243.7c-0.4,0-0.9,0-1.2-0.1l-0.5-0.1v-2.9l0.6,0c0.3,0,0.6,0,0.9,0c0.6,0,1.1-0.2,1.3-0.5
						c0.2-0.3,0.4-0.8,0.4-2.1v-14.9h-1.9v-3h6.9v3h-1.9V238c0,1.8-0.3,3.2-1,4.2C97.8,243.2,96.6,243.7,94.9,243.7z"/>
				</g>
				<g>
					<path class="st0" d="M110.2,239.7c-2,0-3.6-0.7-4.8-2.1c-1.2-1.4-1.8-3.2-1.8-5.5c0-2.3,0.6-4.2,1.9-5.6
						c1.3-1.4,2.9-2.1,4.9-2.1c2,0,3.6,0.7,4.7,2c1.2,1.3,1.8,3.1,1.8,5.4c0,2.4-0.6,4.3-1.9,5.7C113.9,239,112.2,239.7,110.2,239.7
						z M110.2,227.3c-1.1,0-1.9,0.3-2.5,1c-0.6,0.7-0.9,1.8-0.9,3.4c0,1.7,0.3,2.9,0.9,3.8c0.6,0.8,1.5,1.2,2.6,1.2
						c1.1,0,1.9-0.4,2.5-1.1c0.6-0.8,0.9-2,0.9-3.6c0-1.6-0.3-2.8-0.9-3.6C112.3,227.7,111.4,227.3,110.2,227.3z"/>
				</g>
				<g>
					<path class="st0" d="M125.2,239.7c-1.6,0-3.1-0.3-4.5-1l-0.3-0.1v-4.1h3.1v2c0.6,0.1,1.3,0.2,2,0.2c0.8,0,1.5-0.1,2.1-0.4
						c0.4-0.2,0.6-0.5,0.6-0.9c0-0.5-0.2-0.8-0.6-1c-0.5-0.3-1.3-0.6-2.3-0.9c-0.5-0.2-1.1-0.3-1.7-0.6c-0.6-0.2-1.1-0.5-1.6-0.8
						c-0.5-0.3-0.9-0.8-1.3-1.3c-0.3-0.5-0.5-1.2-0.5-2c0-1.4,0.6-2.6,1.7-3.3c1.1-0.7,2.5-1.1,4.1-1.1c1.4,0,2.9,0.3,4.4,0.8
						l0.4,0.1v4.3h-3.1v-2c-0.6-0.1-1.2-0.2-1.9-0.2c-0.8,0-1.4,0.1-1.9,0.4c-0.4,0.2-0.6,0.4-0.6,0.8c0,0.3,0,0.5,0.1,0.6
						c0.1,0.2,0.2,0.3,0.4,0.4c0.2,0.1,0.6,0.3,1,0.4c0.4,0.2,0.9,0.3,1.5,0.5c0.5,0.2,1.1,0.4,1.6,0.6c0.6,0.2,1.1,0.5,1.6,0.8
						c0.5,0.3,0.9,0.8,1.2,1.3c0.3,0.5,0.5,1.2,0.5,1.9c0,1.5-0.6,2.6-1.8,3.4C128.4,239.3,126.9,239.7,125.2,239.7z"/>
				</g>
				<g>
					<path class="st0" d="M141.1,239.7c-2.1,0-3.8-0.7-5-2.1c-1.2-1.4-1.8-3.2-1.8-5.4c0-2.4,0.6-4.4,1.8-5.7
						c1.2-1.4,2.8-2.1,4.8-2.1c1.7,0,3.1,0.6,4.1,1.9c0.9,1.2,1.4,2.9,1.4,5v1.6h-8.8c0.1,1.1,0.4,2.1,1,2.7
						c0.6,0.7,1.5,1.1,2.8,1.1c1.3,0,2.5-0.4,3.8-1.3l0.9-0.6v3.4l-0.3,0.2C144.3,239.2,142.7,239.7,141.1,239.7z M143.3,229.9
						c-0.3-2.2-1.6-2.5-2.6-2.5c-0.9,0-1.6,0.3-2.1,0.8c-0.4,0.4-0.7,1-0.8,1.7H143.3z"/>
				</g>
				<g>
					<path class="st0" d="M148.9,245.8v-3h1.9v-15.4h-1.9v-3h4.8l0.1,1.1c1-0.8,2.1-1.1,3.3-1.1c1.7,0,3.1,0.7,4.2,2.1
						c1,1.4,1.6,3.1,1.6,5.3c0,2.3-0.6,4.2-1.8,5.7c-1.2,1.5-2.8,2.3-4.8,2.3c-0.8,0-1.6-0.1-2.4-0.4v3.5h1.9v3H148.9z M153.9,236.3
						c0.6,0.3,1.4,0.4,2.2,0.4c1.2,0,2-0.3,2.7-1c0.6-0.7,1-1.9,1-3.6c0-1.6-0.3-2.8-0.9-3.6c-0.5-0.8-1.3-1.1-2.3-1.1
						c-0.9,0-1.8,0.5-2.6,1.4V236.3z"/>
				</g>
				<g>
					<path class="st0" d="M173.3,239.7v-3h1.9v-7.2c0-0.8-0.2-1.4-0.5-1.7c-0.3-0.3-0.8-0.4-1.3-0.4c-1.2,0-2.3,0.6-3.2,1.7v7.6h1.9
						v3h-6.9v-3h1.9v-15.3h-1.9v-3.2h5v7.3c1.1-0.8,2.3-1.3,3.7-1.3c1.5,0,2.6,0.5,3.3,1.4c0.7,0.9,1,2.1,1,3.5v7.5h1.9v3H173.3z"/>
				</g>
			</g>
		</g>
	</g>
</g>
</svg>
